<svg width="50" height="60" viewBox="0 0 50 60" fill="none" xmlns="http://www.w3.org/2000/svg">
<path fill-rule="evenodd" clip-rule="evenodd" d="M34.032 9.6404C36.1764 7.15614 37.6218 3.69608 37.2262 0.253418C34.1361 0.371017 30.3977 2.22658 28.182 4.70789C26.1923 6.90991 24.4554 10.4284 24.9223 13.8035C28.3693 14.0592 31.8877 12.1276 34.032 9.6404ZM41.7617 31.4907C41.848 40.3899 49.9108 43.3502 50 43.3885C49.9346 43.5972 48.7122 47.6066 45.753 51.7519C43.1923 55.3328 40.5364 58.8991 36.3518 58.9755C32.2416 59.049 30.9181 56.6413 26.2161 56.6413C21.517 56.6413 20.0478 58.8988 16.1576 59.0487C12.1188 59.1928 9.0406 55.1746 6.46205 51.6055C1.18598 44.3056 -2.84393 30.9765 2.56895 21.9803C5.25754 17.5145 10.0607 14.6822 15.2773 14.6117C19.2418 14.5382 22.9862 17.1669 25.4101 17.1669C27.834 17.1669 32.3844 14.0065 37.1667 14.471C39.1683 14.5504 44.7894 15.244 48.397 20.3036C48.1055 20.477 41.6903 24.0527 41.7617 31.4907Z" fill="black"/>
</svg>
