<svg width="20" height="20" viewBox="0 0 20 20" fill="none" xmlns="http://www.w3.org/2000/svg">
<path d="M19 1L10 10M19 1V6.0625M19 1H13.9375M17.875 10.5625V15.4C17.875 16.6601 17.875 17.2902 17.6297 17.7715C17.4141 18.1948 17.0698 18.5391 16.6465 18.7547C16.1652 19 15.5351 19 14.275 19H4.6C3.33989 19 2.70982 19 2.22852 18.7547C1.80515 18.5391 1.46095 18.1948 1.24524 17.7715C1 17.2902 1 16.6601 1 15.4V5.725C1 4.46489 1 3.83482 1.24524 3.35352C1.46095 2.93015 1.80515 2.58595 2.22852 2.37024C2.70982 2.125 3.33988 2.125 4.6 2.125H9.4375" stroke="#F5F5F5" stroke-linecap="round" stroke-linejoin="round"/>
</svg>
