<svg width="25" height="25" viewBox="0 0 25 25" fill="none" xmlns="http://www.w3.org/2000/svg">
<path d="M25 12.5C25 19.4035 19.4035 25 12.5 25C5.59644 25 0 19.4035 0 12.5C0 5.59644 5.59644 0 12.5 0C19.4035 0 25 5.59644 25 12.5Z" fill="#444A43"/>
<path d="M10.5159 8.12265L10.7208 7.75524C11.5124 6.33509 11.9083 5.625 12.5 5.625C13.0918 5.625 13.4876 6.33508 14.2793 7.75524L14.4841 8.12266C14.709 8.52621 14.8215 8.72799 14.9969 8.86112C15.1723 8.99426 15.3908 9.04369 15.8276 9.14253L16.2253 9.23251C17.7626 9.58035 18.5313 9.75426 18.7141 10.3424C18.897 10.9304 18.373 11.5431 17.325 12.7688L17.0538 13.0858C16.756 13.434 16.6071 13.6081 16.5401 13.8236C16.4731 14.039 16.4956 14.2714 16.5406 14.736L16.5816 15.159C16.7401 16.7941 16.8193 17.6118 16.3405 17.9751C15.8618 18.3386 15.1421 18.0073 13.7028 17.3445L13.3304 17.173C12.9213 16.9848 12.7168 16.8905 12.5 16.8905C12.2833 16.8905 12.0788 16.9848 11.6696 17.173L11.2973 17.3445C9.85791 18.0073 9.13824 18.3386 8.65946 17.9751C8.1807 17.6118 8.25993 16.7941 8.41838 15.159L8.45936 14.736C8.50439 14.2714 8.5269 14.039 8.45991 13.8236C8.39293 13.6081 8.24401 13.434 7.9462 13.0858L7.67506 12.7688C6.62703 11.5431 6.10301 10.9304 6.28589 10.3424C6.46876 9.75426 7.23743 9.58034 8.77471 9.23251L9.17243 9.14253C9.60929 9.04369 9.82771 8.99426 10.0031 8.86112C10.1785 8.72799 10.291 8.52621 10.5159 8.12265Z" fill="#F5F5F5"/>
</svg>
