<svg width="25" height="auto" viewBox="0 0 25 26" fill="none" xmlns="http://www.w3.org/2000/svg">
<path fill-rule="evenodd" clip-rule="evenodd" d="M5.91909 13.1875C5.91909 12.3865 6.05213 11.6185 6.2896 10.8981L2.13316 7.72412C1.3231 9.36886 0.866699 11.2221 0.866699 13.1875C0.866699 15.1512 1.32254 17.0034 2.13148 18.647L6.28567 15.4669C6.05045 14.7499 5.91909 13.9847 5.91909 13.1875Z" fill="#2d2f2c"/>
<path fill-rule="evenodd" clip-rule="evenodd" d="M13.2171 5.90014C14.9574 5.90014 16.5292 6.51678 17.7643 7.52582L21.3571 3.93811C19.1677 2.03214 16.3608 0.854919 13.2171 0.854919C8.33651 0.854919 4.14191 3.64605 2.1333 7.72427L6.28973 10.8983C7.24744 7.99111 9.97741 5.90014 13.2171 5.90014Z" fill="#2d2f2c"/>
<path fill-rule="evenodd" clip-rule="evenodd" d="M13.2171 20.4752C9.97742 20.4752 7.24744 18.3843 6.28973 15.4771L2.1333 18.6506C4.14191 22.7293 8.33651 25.5205 13.2171 25.5205C16.2295 25.5205 19.1054 24.4509 21.2639 22.4468L17.3185 19.3967C16.2053 20.098 14.8036 20.4752 13.2171 20.4752Z" fill="#2d2f2c"/>
<path fill-rule="evenodd" clip-rule="evenodd" d="M25.0057 13.1876C25.0057 12.4589 24.8934 11.6741 24.725 10.9453H13.2168V15.7102H19.841C19.5098 17.3348 18.6083 18.5838 17.3182 19.3966L21.2636 22.4467C23.531 20.3423 25.0057 17.2076 25.0057 13.1876Z" fill="#2d2f2c"/>
</svg>
