<svg width="25" height="25" viewBox="0 0 25 25" fill="none" xmlns="http://www.w3.org/2000/svg">
<path fill-rule="evenodd" clip-rule="evenodd" d="M12.5 25C5.59644 25 0 19.4036 0 12.5C0 5.59644 5.59644 0 12.5 0C19.4036 0 25 5.59644 25 12.5C25 19.4036 19.4036 25 12.5 25ZM12.5 5.55556C11.7329 5.55556 11.1111 6.17739 11.1111 6.94444C11.1111 7.7115 11.7329 8.33333 12.5 8.33333H12.5139C13.281 8.33333 13.9028 7.7115 13.9028 6.94444C13.9028 6.17739 13.281 5.55556 12.5139 5.55556H12.5ZM10.4167 11.1111C9.64961 11.1111 9.02778 11.7329 9.02778 12.5C9.02778 13.2671 9.64961 13.8889 10.4167 13.8889H11.1111V18.0556C11.1111 18.8226 11.7329 19.4444 12.5 19.4444H15.2778C16.0449 19.4444 16.6667 18.8226 16.6667 18.0556C16.6667 17.2885 16.0449 16.6667 15.2778 16.6667H13.8889V12.5C13.8889 11.7329 13.2671 11.1111 12.5 11.1111H10.4167Z" fill="#2D2F2C"/>
</svg>
