<svg width="38" height="39" viewBox="0 0 38 39" fill="none" xmlns="http://www.w3.org/2000/svg">
<g clip-path="url(#clip0_111_709)">
<path d="M5.16211 37.1082V9.97803H18.4089C19.3574 9.97803 20.1228 10.7406 20.1228 11.6792V30.3007C20.105 33.527 19.6884 36.6859 17.5756 38.4251C17.2713 38.6774 16.8842 38.8093 16.4882 38.8093H6.87595C5.92743 38.8093 5.16211 38.0468 5.16211 37.1082Z" fill="#444a43"/>
<path d="M30.8109 27.4205H22.6465V9.9751H38.0001V20.2846C38.0001 24.2265 34.7823 27.4205 30.8109 27.4205Z" fill="#444a43"/>
<path d="M37.9998 9.97804H22.6461L12.4458 0H27.7995L37.9998 9.97804Z" fill="#444a43"/>
<path d="M14.1421 34.5448C14.1421 32.7351 15.856 31.1894 16.6479 30.5706C16.7691 30.4767 16.7011 30.2831 16.5474 30.2831L2.90171 30.3506C2.90171 30.3506 0 30.3506 0 34.58C0 38.3166 2.56781 38.8094 2.56781 38.8094C2.56781 38.8094 13.1907 39.2376 16.6981 38.8094C16.772 38.8006 16.9907 38.736 16.9907 38.736C15.3891 38.736 14.1451 36.9 14.1451 34.5448H14.1421Z" fill="#444a43"/>
</g>
<defs>
<clipPath id="clip0_111_709">
<rect width="38" height="39" fill="white"/>
</clipPath>
</defs>
</svg>
