<svg width="16" height="18" viewBox="0 0 16 18" fill="none" xmlns="http://www.w3.org/2000/svg">
<path d="M2.17334 16.3522V4.39697H7.75091C8.15029 4.39697 8.47252 4.73301 8.47252 5.1466V13.3524C8.46506 14.7741 8.28963 16.1661 7.40006 16.9325C7.27191 17.0436 7.10892 17.1018 6.94221 17.1018H2.89495C2.49558 17.1018 2.17334 16.7658 2.17334 16.3522Z" fill="#EB7137"/>
<path d="M9.53516 4.39697H15.9998V8.93995C15.9998 10.6757 14.6437 12.0845 12.9728 12.0845H9.53516V4.39697Z" fill="#EB7137"/>
<path d="M16.0002 4.39693H9.53556L5.24072 0H11.7054L16.0002 4.39693Z" fill="url(#paint0_linear_193_2)"/>
<path d="M5.95455 15.2225C5.95455 14.4251 6.67617 13.744 7.0096 13.4713C7.06061 13.4299 7.032 13.3446 6.9673 13.3446L1.22177 13.3743C1.22177 13.3743 0 13.3743 0 15.2381C0 16.8846 1.08118 17.1018 1.08118 17.1018C1.08118 17.1018 5.55393 17.2905 7.03075 17.1018C7.06186 17.0979 7.15392 17.0695 7.15392 17.0695C6.47959 17.0695 5.9558 16.2604 5.9558 15.2225H5.95455Z" fill="url(#paint1_linear_193_2)"/>
<defs>
<linearGradient id="paint0_linear_193_2" x1="5.24072" y1="2.19847" x2="16.0002" y2="2.19847" gradientUnits="userSpaceOnUse">
<stop stop-color="#81271B"/>
<stop offset="1" stop-color="#EB7137"/>
</linearGradient>
<linearGradient id="paint1_linear_193_2" x1="6.92002" y1="13.1908" x2="0.864795" y2="17.1561" gradientUnits="userSpaceOnUse">
<stop stop-color="#81271B"/>
<stop offset="1" stop-color="#EB7137"/>
</linearGradient>
</defs>
</svg>
