<svg width="120" height="46" viewBox="0 0 120 46" fill="none" xmlns="http://www.w3.org/2000/svg">
<path d="M120 23C97 23 87.6142 46 60 46C32.3858 46 18 23 0 23C0 6.43146 32.3858 0 60 0C87.6142 0 120 6.43146 120 23Z" fill="#F5F5F5"/>
<path d="M49.1973 37.3805V15.1691H59.9688C60.7401 15.1691 61.3624 15.7934 61.3624 16.5618V31.8073C61.348 34.4486 61.0092 37.0348 59.2912 38.4587C59.0437 38.6652 58.729 38.7733 58.407 38.7733H50.5909C49.8196 38.7733 49.1973 38.1489 49.1973 37.3805Z" fill="#EB7137"/>
<path d="M63.415 15.1691H75.8997V23.6094C75.8997 26.8343 73.2807 29.4516 70.0538 29.4516H63.415V15.1691Z" fill="#EB7137"/>
<path d="M75.8991 15.169H63.4144L55.1201 7H67.6048L75.8991 15.169Z" fill="url(#paint0_linear_348_388)"/>
<path d="M56.4995 35.2818C56.4995 33.8003 57.8931 32.5348 58.5371 32.0282C58.6356 31.9513 58.5803 31.7928 58.4554 31.7928L47.3595 31.8481C47.3595 31.8481 45 31.8481 45 35.3107C45 38.3698 47.088 38.7733 47.088 38.7733C47.088 38.7733 55.7259 39.1238 58.5779 38.7733C58.638 38.7661 58.8158 38.7132 58.8158 38.7132C57.5135 38.7132 56.5019 37.21 56.5019 35.2818H56.4995Z" fill="url(#paint1_linear_348_388)"/>
<defs>
<linearGradient id="paint0_linear_348_388" x1="55.1201" y1="11.0845" x2="75.8991" y2="11.0845" gradientUnits="userSpaceOnUse">
<stop stop-color="#81271B"/>
<stop offset="1" stop-color="#EB7137"/>
</linearGradient>
<linearGradient id="paint1_linear_348_388" x1="58.3641" y1="31.5071" x2="46.9459" y2="39.2794" gradientUnits="userSpaceOnUse">
<stop stop-color="#81271B"/>
<stop offset="1" stop-color="#EB7137"/>
</linearGradient>
</defs>
</svg>
