<svg width="26" height="25" viewBox="0 0 26 25" fill="none" xmlns="http://www.w3.org/2000/svg">
<path fill-rule="evenodd" clip-rule="evenodd" d="M2.84983 7.79907H4.23871V14.7435H22.2943V7.79907H23.6832V14.7435H24.7248C24.9166 14.7435 25.072 14.899 25.072 15.0907V15.7852C25.072 15.9769 24.9166 16.1324 24.7248 16.1324H1.80816C1.6164 16.1324 1.46094 15.9769 1.46094 15.7852V15.0907C1.46094 14.899 1.6164 14.7435 1.80816 14.7435H2.84983V7.79907ZM3.54427 18.2157V23.0768H22.9887V18.2157H3.54427ZM2.84983 16.8268C2.4663 16.8268 2.15538 17.1378 2.15538 17.5213V23.7713C2.15538 24.1548 2.4663 24.4657 2.84983 24.4657H23.6832C24.0667 24.4657 24.3776 24.1548 24.3776 23.7713V17.5213C24.3776 17.1378 24.0667 16.8268 23.6832 16.8268H2.84983Z" fill="#F5F5F5"/>
<path fill-rule="evenodd" clip-rule="evenodd" d="M21.4326 9.01778C21.0023 9.45243 20.4067 9.72222 19.746 9.72222C19.0853 9.72222 18.4898 9.45243 18.0595 9.01778C17.6293 9.45243 17.0337 9.72222 16.373 9.72222C15.7124 9.72222 15.1167 9.45243 14.6865 9.01778C14.2563 9.45243 13.6607 9.72222 13 9.72222C12.3393 9.72222 11.7437 9.45243 11.3135 9.01778C10.8833 9.45243 10.2876 9.72222 9.62701 9.72222C8.96632 9.72222 8.37069 9.45243 7.94049 9.01778C7.51021 9.45243 6.91465 9.72222 6.25396 9.72222C5.59333 9.72222 4.99771 9.45243 4.56743 9.01778C4.13722 9.45243 3.5416 9.72222 2.88095 9.72222C1.56052 9.72222 0.5 8.64437 0.5 7.32708V5.66729C0.5 5.44708 0.538389 5.22847 0.613507 5.02139L2.12752 0.848326C2.31131 0.341736 2.79175 0 3.33465 0H22.6653C23.2083 0 23.6887 0.341736 23.8725 0.848333L25.3865 5.02139C25.4616 5.22847 25.5 5.44708 25.5 5.66729V7.32708C25.5 8.64437 24.4394 9.72222 23.119 9.72222C22.4584 9.72222 21.8628 9.45243 21.4326 9.01778Z" fill="#F5F5F5"/>
</svg>
