<svg width="581" height="766" viewBox="0 0 581 766" fill="none" xmlns="http://www.w3.org/2000/svg">
<path d="M530 291.281H501.875V212.219C501.875 95.3437 406.875 0.1875 290 0.1875C173.125 0.1875 78.125 95.3438 78.125 212.063V291.125H50.1562C22.5 291.125 0 313.625 0 341.281V715.656C0 743.312 22.5 765.812 50.1562 765.812H530.156C557.813 765.812 580.312 743.312 580.312 715.656V341.281C580.156 313.781 557.656 291.281 530 291.281ZM141.875 212.063C141.875 130.344 208.281 63.9375 290 63.9375C371.719 63.9375 438.125 130.344 438.125 212.063V290.969H141.875V212.063ZM516.25 702.063H63.75V355.031H516.406V702.063H516.25Z" fill="black"/>
</svg>
