<svg width="581" height="766" viewBox="0 0 581 766" fill="none" xmlns="http://www.w3.org/2000/svg">
<path d="M530 291.094H501.875V212.031C501.875 95.1562 406.875 0 290 0C173.125 0 78.125 95.1563 78.125 211.875V290.938H50.1562C22.5 290.938 0 313.437 0 341.094V715.469C0 743.125 22.5 765.625 50.1562 765.625H530.156C557.813 765.625 580.312 743.125 580.312 715.469V341.094C580.156 313.594 557.656 291.094 530 291.094ZM141.875 211.875C141.875 130.156 208.281 63.75 290 63.75C371.719 63.75 438.125 130.156 438.125 211.875V290.781H141.875V211.875ZM516.25 701.875H63.75V354.844H516.406V701.875H516.25Z" fill="black"/>
<path d="M141 521.821L240.006 620.827L438 422.812" stroke="black" stroke-width="50" stroke-linecap="round" stroke-linejoin="round"/>
</svg>
