<svg width="26" height="26" viewBox="0 0 26 26" fill="none" xmlns="http://www.w3.org/2000/svg">
<circle cx="13" cy="13" r="12.5" fill="#F5F5F5"/>
<path d="M17.8194 14.5625C18.7535 14.5625 19.5164 15.2971 19.5605 16.2207L19.5625 16.3051V16.6133C19.5625 18.1536 18.7661 19.3067 17.5444 20.0505C16.3431 20.7818 14.7284 21.125 13 21.125C11.2716 21.125 9.65686 20.7818 8.45555 20.0505C7.27091 19.3293 6.48616 18.2231 6.43968 16.7522L6.4375 16.6133V16.3052C6.4375 15.3707 7.17289 14.6085 8.09618 14.5645L8.18062 14.5625H17.8194ZM17.8194 15.5879H8.18062C7.80387 15.5879 7.49519 15.8777 7.46527 16.2464L7.46289 16.3052V16.6133C7.46289 17.7389 8.02078 18.5854 8.98875 19.1746C9.97703 19.7763 11.3871 20.0996 13 20.0996C14.6129 20.0996 16.023 19.7763 17.0112 19.1746C17.9446 18.6064 18.4967 17.799 18.535 16.7328L18.5371 16.6133V16.3052C18.5371 15.9288 18.2473 15.6202 17.8783 15.5903L17.8194 15.5879ZM13 4.71875C15.2652 4.71875 17.1016 6.55508 17.1016 8.82031C17.1016 11.0855 15.2652 12.9219 13 12.9219C10.7348 12.9219 8.89844 11.0855 8.89844 8.82031C8.89844 6.55508 10.7348 4.71875 13 4.71875ZM13 5.74414C11.3011 5.74414 9.92383 7.12139 9.92383 8.82031C9.92383 10.5192 11.3011 11.8965 13 11.8965C14.6989 11.8965 16.0762 10.5192 16.0762 8.82031C16.0762 7.12139 14.6989 5.74414 13 5.74414Z" fill="#2D2F2C"/>
</svg>
