<svg width="26" height="24" viewBox="0 0 26 24" fill="none" xmlns="http://www.w3.org/2000/svg">
<path d="M23.1137 8.18854C20.8523 8.18854 19.9278 6.61451 21.0522 4.68386C21.7019 3.56482 21.3146 2.13835 20.1777 1.4989L18.0162 0.281483C17.0292 -0.296482 15.7549 0.0478376 15.1677 1.01931L15.0302 1.25296C13.9058 3.18361 12.0567 3.18361 10.9198 1.25296L10.7824 1.01931C10.2201 0.0478376 8.94578 -0.296482 7.95877 0.281483L5.79735 1.4989C4.66042 2.13835 4.27311 3.57711 4.92279 4.69615C6.05972 6.61451 5.13518 8.18854 2.87381 8.18854C1.57446 8.18854 0.5 9.2338 0.5 10.525V12.6893C0.5 13.9682 1.56197 15.0257 2.87381 15.0257C5.13518 15.0257 6.05972 16.5998 4.92279 18.5304C4.27311 19.6495 4.66042 21.0759 5.79735 21.7154L7.95877 22.9328C8.94578 23.5108 10.2201 23.1664 10.8073 22.195L10.9448 21.9613C12.0692 20.0307 13.9183 20.0307 15.0552 21.9613L15.1927 22.195C15.7799 23.1664 17.0542 23.5108 18.0412 22.9328L20.2027 21.7154C21.3396 21.0759 21.7269 19.6372 21.0772 18.5304C19.9403 16.5998 20.8648 15.0257 23.1262 15.0257C24.4255 15.0257 25.5 13.9805 25.5 12.6893V10.525C25.4875 9.24609 24.4255 8.18854 23.1137 8.18854ZM12.9938 15.6037C10.7574 15.6037 8.93328 13.8083 8.93328 11.6071C8.93328 9.40596 10.7574 7.61057 12.9938 7.61057C15.2301 7.61057 17.0542 9.40596 17.0542 11.6071C17.0542 13.8083 15.2301 15.6037 12.9938 15.6037Z" fill="#F5F5F5"/>
</svg>
