<svg width="25" height="25" viewBox="0 0 25 25" fill="none" xmlns="http://www.w3.org/2000/svg">
<path d="M17.7339 0H7.26611C2.71384 0 0 2.71385 0 7.26612V17.7338C0 22.2861 2.71384 25 7.26611 25H17.7339C22.2861 25 25 22.2861 25 17.7338V7.26612C25 2.71385 22.2861 0 17.7339 0Z" fill="#F5F5F5"/>
<path d="M11.8683 7.6163V19.072C11.8683 19.5222 11.418 19.8224 11.0053 19.6473C9.49213 18.997 7.51613 18.3967 6.14045 18.2216L5.90283 18.1966C5.13995 18.0965 4.51465 17.3837 4.51465 16.6083V6.97847C4.51465 6.02799 5.29005 5.31515 6.24052 5.39019C7.8038 5.51525 10.1175 6.26564 11.5682 7.09105C11.7558 7.17859 11.8683 7.39118 11.8683 7.6163Z" fill="#2D2F2C"/>
<path d="M20.4738 7.12835V16.5955C20.4738 17.3709 19.8485 18.0838 19.0856 18.1838L18.823 18.2088C17.4598 18.3964 15.4963 18.9842 13.983 19.622C13.5703 19.7971 13.1201 19.497 13.1201 19.0468V7.60355C13.1201 7.37844 13.2327 7.16587 13.4328 7.05331C14.8835 6.24041 17.1471 5.51501 18.6854 5.37744H18.7354C19.6984 5.38995 20.4738 6.16537 20.4738 7.12835Z" fill="#2D2F2C"/>
</svg>
