<svg width="26" height="24" viewBox="0 0 26 24" fill="none" xmlns="http://www.w3.org/2000/svg">
<path fill-rule="evenodd" clip-rule="evenodd" d="M13 17.5C17.8325 17.5 21.75 13.5825 21.75 8.75C21.75 3.91751 17.8325 0 13 0C8.16751 0 4.25 3.91751 4.25 8.75C4.25 13.5825 8.16751 17.5 13 17.5ZM13 5C12.6449 5 12.4074 5.42605 11.9324 6.27813L11.8095 6.49858C11.6746 6.74072 11.6071 6.8618 11.5019 6.94167C11.3966 7.02156 11.2656 7.05121 11.0035 7.11051L10.7649 7.16451C9.84245 7.37321 9.38126 7.47756 9.27153 7.8304C9.16181 8.18323 9.47621 8.5509 10.105 9.28622L10.2677 9.47646C10.4464 9.68541 10.5357 9.78988 10.576 9.91913C10.6161 10.0484 10.6026 10.1877 10.5756 10.4666L10.551 10.7204C10.4559 11.7015 10.4084 12.192 10.6956 12.4101C10.983 12.6281 11.4147 12.4294 12.2784 12.0317L12.5017 11.9289C12.7472 11.8159 12.8699 11.7594 13 11.7594C13.1301 11.7594 13.2527 11.8159 13.4982 11.9289L13.7216 12.0317C14.5852 12.4294 15.017 12.6281 15.3044 12.4101C15.5916 12.192 15.544 11.7015 15.449 10.7204L15.4244 10.4666C15.3974 10.1877 15.3839 10.0484 15.424 9.91913C15.4642 9.78988 15.5536 9.68541 15.7322 9.47647L15.895 9.28622C16.5237 8.5509 16.8382 8.18323 16.7285 7.8304C16.6187 7.47756 16.1575 7.37321 15.2351 7.16451L14.9965 7.11051C14.7344 7.05121 14.6034 7.02156 14.4981 6.94167C14.3929 6.8618 14.3254 6.74072 14.1905 6.49858L14.0676 6.27813C13.5926 5.42605 13.3551 5 13 5Z" fill="#F5F5F5"/>
<path d="M3.61896 13.7433L1.74007 15.6888C1.06492 16.3878 0.727347 16.7373 0.610534 17.0333C0.344347 17.7078 0.572147 18.456 1.15172 18.8108C1.40607 18.9665 1.86483 19.015 2.78236 19.1122C3.30037 19.1669 3.55943 19.1943 3.77637 19.2774C4.26207 19.4637 4.63988 19.8548 4.81968 20.3577C4.89999 20.5823 4.92646 20.8505 4.97937 21.3869C5.07309 22.3369 5.11996 22.8119 5.27034 23.0753C5.61302 23.6754 6.33564 23.9113 6.98708 23.6357C7.27296 23.5147 7.61053 23.1652 8.28568 22.4662L11.3882 19.2537C8.01632 18.7405 5.16531 16.6425 3.61896 13.7433Z" fill="#F5F5F5"/>
<path d="M14.6113 19.2537L17.714 22.4662C18.3891 23.1652 18.7266 23.5147 19.0125 23.6357C19.664 23.9113 20.3866 23.6754 20.7292 23.0753C20.8796 22.8119 20.9265 22.3369 21.0202 21.3869C21.0731 20.8505 21.0996 20.5823 21.1798 20.3577C21.3597 19.8548 21.7375 19.4637 22.2232 19.2774C22.4402 19.1943 22.6992 19.1669 23.2172 19.1122C24.1347 19.015 24.5934 18.9665 24.8478 18.8108C25.4274 18.456 25.6552 17.7078 25.3891 17.0333C25.2722 16.7373 24.9347 16.3878 24.2594 15.6888L22.3806 13.7433C20.8342 16.6425 17.9832 18.7405 14.6113 19.2537Z" fill="#F5F5F5"/>
</svg>
