<svg width="26" height="25" viewBox="0 0 26 25" fill="none" xmlns="http://www.w3.org/2000/svg">
<path d="M25.0961 9.73691C25.0961 8.26055 23.9323 7.05098 22.4739 6.97734V2.50005C22.4739 1.33735 21.5313 0.394775 20.3686 0.394775H5.63179C4.46909 0.394775 3.52651 1.33735 3.52651 2.50005V13.2935C2.06821 13.3672 0.904297 14.5764 0.904297 16.0527C0.904297 17.5291 2.06812 18.7386 3.52651 18.8123V22.5C3.52651 23.6627 4.46909 24.6053 5.63179 24.6053H20.3687C21.5313 24.6053 22.4739 23.6627 22.4739 22.5V12.496C23.9322 12.4224 25.0961 11.2132 25.0961 9.73691ZM1.69375 16.0527C1.69375 15.0119 2.50381 14.1573 3.52646 14.0847V18.0208C2.50381 17.9482 1.69375 17.0935 1.69375 16.0527ZM22.4739 11.7048V7.7688C23.4966 7.84136 24.3066 8.696 24.3066 9.73691C24.3066 10.7777 23.4966 11.6323 22.4739 11.7048Z" fill="#F5F5F5"/>
<path d="M5.2373 6.97371C5.2373 6.75569 5.41406 6.57898 5.63203 6.57898H10.3689C10.5869 6.57898 10.7636 6.75574 10.7636 6.97371C10.7636 7.19172 10.5869 7.36843 10.3689 7.36843H5.63203C5.41401 7.36843 5.2373 7.19172 5.2373 6.97371ZM20.3688 17.6316H15.632C15.414 17.6316 15.2373 17.8084 15.2373 18.0263C15.2373 18.2443 15.414 18.4211 15.632 18.4211H20.3688C20.5869 18.4211 20.7636 18.2443 20.7636 18.0263C20.7636 17.8084 20.5869 17.6316 20.3688 17.6316ZM10.8952 13.9474H5.63203C5.41401 13.9474 5.2373 14.1241 5.2373 14.3421C5.2373 14.5601 5.41406 14.7368 5.63203 14.7368H10.8952C11.1132 14.7368 11.2899 14.5601 11.2899 14.3421C11.2899 14.1241 11.1132 13.9474 10.8952 13.9474ZM20.3688 13.9474H15.632C15.414 13.9474 15.2373 14.1241 15.2373 14.3421C15.2373 14.5601 15.414 14.7368 15.632 14.7368H20.3688C20.5869 14.7368 20.7636 14.5601 20.7636 14.3421C20.7636 14.1241 20.5869 13.9474 20.3688 13.9474ZM10.5004 10.6579C10.5004 10.876 10.6772 11.0527 10.8952 11.0527H20.3688C20.5869 11.0527 20.7636 10.8759 20.7636 10.6579C20.7636 10.4399 20.5868 10.2632 20.3688 10.2632H10.8952C10.6772 10.2632 10.5004 10.4399 10.5004 10.6579ZM5.63203 11.0527H7.7373C7.95532 11.0527 8.13203 10.8759 8.13203 10.6579C8.13203 10.4399 7.95527 10.2632 7.7373 10.2632H5.63203C5.41401 10.2632 5.2373 10.44 5.2373 10.6579C5.2373 10.8759 5.41401 11.0527 5.63203 11.0527ZM9.26357 10.2632C9.04556 10.2632 8.86885 10.4399 8.86885 10.6579C8.86885 10.8759 9.04561 11.0526 9.26357 11.0526H9.31621C9.53423 11.0526 9.71094 10.8759 9.71094 10.6579C9.71094 10.4399 9.53418 10.2632 9.31621 10.2632H9.26357ZM12.5268 13.9474H12.4741C12.2561 13.9474 12.0794 14.1241 12.0794 14.3421C12.0794 14.5601 12.2562 14.7368 12.4741 14.7368H12.5268C12.7448 14.7368 12.9215 14.5601 12.9215 14.3421C12.9215 14.1241 12.7448 13.9474 12.5268 13.9474ZM14.0531 13.9474H14.0004C13.7824 13.9474 13.6057 14.1241 13.6057 14.3421C13.6057 14.5601 13.7825 14.7368 14.0004 14.7368H14.0531C14.2711 14.7368 14.4478 14.5601 14.4478 14.3421C14.4478 14.1241 14.2711 13.9474 14.0531 13.9474Z" fill="#444A43"/>
<path d="M13.3723 18.3201L11.3254 19.9354C11.2227 20.0165 11.056 20.0165 10.9533 19.9354C10.9039 19.8964 10.8762 19.8436 10.8762 19.7886V18.8159H3.93057H3.66743C2.1438 18.8159 0.904297 17.5764 0.904297 16.0527C0.904297 14.5732 2.07314 13.3618 3.53589 13.2929V14.0839C2.50874 14.1519 1.6938 15.0087 1.6938 16.0527C1.6938 17.141 2.57915 18.0264 3.66748 18.0264H3.93061H10.8763V16.2642C10.8763 16.2092 10.904 16.1563 10.9533 16.1174C11.0561 16.0363 11.2228 16.0363 11.3255 16.1174L13.3724 17.7327C13.5778 17.8949 13.5778 18.1578 13.3723 18.3201ZM22.3329 6.97372H22.0697H15.1054V5.21156C15.1054 5.15653 15.0777 5.10365 15.0284 5.06473C14.9256 4.98363 14.759 4.98363 14.6562 5.06473L12.6093 6.68007C12.4038 6.84227 12.4038 7.10521 12.6093 7.26742L14.6562 8.88275C14.759 8.96386 14.9256 8.96386 15.0284 8.88275C15.0777 8.84379 15.1054 8.79095 15.1054 8.73593V7.76322H22.0697H22.3329C23.4212 7.76322 24.3065 8.64857 24.3065 9.7369C24.3065 10.7809 23.4916 11.6377 22.4645 11.7057V12.4967C23.9272 12.4278 25.096 11.2164 25.096 9.73685C25.096 8.21327 23.8565 6.97372 22.3329 6.97372Z" fill="#444A43"/>
<path d="M22.859 6.58164V2.5C22.859 1.12153 21.7375 0 20.359 0H5.62222C4.24375 0 3.12222 1.12153 3.12222 2.5V12.8982C1.66377 12.9719 0.5 14.1815 0.5 15.6579C0.5 17.1815 1.7395 18.421 3.26313 18.421H10.4719V19.7884C10.4719 19.9646 10.5547 20.1311 10.6991 20.2451C10.9446 20.4388 11.3149 20.4389 11.5604 20.2452L13.6073 18.6299C13.8007 18.4772 13.9116 18.2572 13.9116 18.0264C13.9116 17.7955 13.8007 17.5755 13.6073 17.4228L11.5604 15.8075C11.3149 15.6137 10.9447 15.6138 10.6992 15.8075C10.5547 15.9215 10.4719 16.088 10.4719 16.2643V17.6316H3.91167V2.5C3.91167 1.55684 4.67905 0.789453 5.62222 0.789453H20.3591C21.3023 0.789453 22.0696 1.55684 22.0696 2.5V6.57896H15.4906V5.21157C15.4906 5.03525 15.4078 4.86875 15.2632 4.75479C15.0177 4.56113 14.6476 4.56113 14.4021 4.75483L12.3553 6.37017C12.1619 6.5228 12.051 6.74277 12.0509 6.97368C12.0509 7.20459 12.1618 7.42456 12.3553 7.57725L14.4021 9.19248C14.6476 9.38633 15.0179 9.38628 15.2631 9.19263C15.4077 9.07866 15.4906 8.91216 15.4906 8.73579V7.36841H22.7368C23.8251 7.36841 24.7105 8.25376 24.7105 9.34209C24.7105 10.3893 23.8906 11.2487 22.859 11.3121V9.34209C22.859 9.12407 22.6824 8.94736 22.4643 8.94736C22.2462 8.94736 22.0696 9.12412 22.0696 9.34209V22.5C22.0696 23.4432 21.3022 24.2105 20.359 24.2105H5.62222C4.67905 24.2105 3.91167 23.4432 3.91167 22.5V20.3947C3.91167 20.1767 3.73491 20 3.51694 20C3.29897 20 3.12222 20.1768 3.12222 20.3947V22.5C3.12222 23.8785 4.24375 25 5.62222 25H20.3591C21.7375 25 22.8591 23.8785 22.8591 22.5V12.1026C24.3262 12.0385 25.5 10.8248 25.5 9.34209C25.5 7.85937 24.3262 6.64575 22.859 6.58164ZM3.12222 17.6266C2.09941 17.5541 1.2895 16.6988 1.2895 15.6579C1.2895 14.6169 2.09946 13.7617 3.12222 13.6892V17.6266ZM11.2614 16.5771L13.0978 18.0263L11.2614 19.4755V16.5771ZM14.7012 8.4228L12.8648 6.97368L14.7012 5.52451V8.4228Z" fill="#444A43"/>
</svg>
