<svg width="15" height="15" viewBox="0 0 15 15" fill="none" xmlns="http://www.w3.org/2000/svg">
<path d="M5.36486 2.55628C6.31484 0.852096 6.78982 0 7.49999 0C8.21017 0 8.68514 0.852089 9.63509 2.55627L9.88086 2.99717C10.1509 3.48144 10.2858 3.72359 10.4963 3.88335C10.7068 4.04312 10.9688 4.10242 11.4931 4.22103L11.9704 4.32902C13.8151 4.74641 14.7375 4.95511 14.9569 5.66079C15.1764 6.36644 14.5476 7.10182 13.2899 8.57241L12.9646 8.95289C12.6072 9.37079 12.4285 9.57974 12.3481 9.83826C12.2677 10.0968 12.2947 10.3756 12.3487 10.9332L12.3979 11.4408C12.5881 13.4029 12.6832 14.384 12.1087 14.8201C11.5341 15.2563 10.6705 14.8586 8.94322 14.0634L8.49637 13.8576C8.00557 13.6316 7.76017 13.5186 7.49999 13.5186C7.23982 13.5186 6.99442 13.6316 6.50362 13.8576L6.05677 14.0634C4.32951 14.8586 3.46588 15.2563 2.89136 14.8201C2.31684 14.384 2.41191 13.4029 2.60205 11.4408L2.65123 10.9332C2.70527 10.3756 2.73229 10.0968 2.65189 9.83826C2.57151 9.57974 2.39282 9.37079 2.03544 8.95289L1.71007 8.57241C0.452438 7.10182 -0.176383 6.36644 0.0430664 5.66079C0.262516 4.95511 1.18489 4.74641 3.02965 4.32902L3.50691 4.22103C4.03113 4.10242 4.29324 4.04312 4.5037 3.88335C4.71416 3.72359 4.84914 3.48145 5.1191 2.99717L5.36486 2.55628Z" fill="#F5F5F5"/>
</svg>
